<svg xmlns="http://www.w3.org/2000/svg" xmlns:xlink="http://www.w3.org/1999/xlink" width="41" height="41" viewBox="0 0 41 41">
  <defs>
    <linearGradient id="linear-gradient" x1="0.5" y1="-0.21" x2="0.5" y2="1.27" gradientUnits="objectBoundingBox">
      <stop offset="0" stop-color="#be5ff9"/>
      <stop offset="1" stop-color="#4d2bd5"/>
    </linearGradient>
    <clipPath id="clip-path">
      <rect id="Rectangle_9723" data-name="Rectangle 9723" width="41" height="41" rx="10" transform="translate(2969 24)" fill="url(#linear-gradient)"/>
    </clipPath>
  </defs>
  <g id="Mask_Group_245" data-name="Mask Group 245" transform="translate(-2969 -24)" clip-path="url(#clip-path)">
    <rect id="Rectangle_9723-2" data-name="Rectangle 9723" width="41" height="41" rx="10" transform="translate(2969 24)" fill="url(#linear-gradient)"/>
    <g id="Group_47875" data-name="Group 47875" transform="translate(2970 29.815)">
      <g id="Group_47874" data-name="Group 47874" transform="translate(0 21.569)">
        <path id="Path_26443" data-name="Path 26443" d="M.157,0,0,.23H0L.157,0Z" transform="translate(18.165 8.655)" fill="none"/>
        <path id="Path_26444" data-name="Path 26444" d="M.5.5,0,0,.5.5Z" transform="translate(14.816 4.209)" fill="none"/>
        <path id="Path_26445" data-name="Path 26445" d="M0,0,.059.086h0L0,0Z" transform="translate(21.419 8.798)" fill="none"/>
        <path id="Path_26446" data-name="Path 26446" d="M0,3.092,1.006,0,0,3.092Z" transform="translate(25.041 5.792)" fill="none"/>
        <path id="Path_26447" data-name="Path 26447" d="M0,.5.494,0,0,.5Z" transform="translate(24.333 4.209)" fill="none"/>
        <path id="Path_26448" data-name="Path 26448" d="M1.006,3.092h0L0,0Z" transform="translate(13.596 5.792)" fill="none"/>
        <path id="Path_26449" data-name="Path 26449" d="M4.431,0,3.283,3.528.868,0h0l.6.87L0,2.881.538,5.507h2.1L4.431,0Z" transform="translate(20.61 8.884)" fill="#e3e3e3"/>
        <path id="Path_26450" data-name="Path 26450" d="M2.989.838,3.563,0h0L1.148,3.528,0,0H0L1.792,5.507H3.586l.753-2.626Z" transform="translate(14.603 8.884)" fill="#e3e3e3"/>
        <path id="Path_26451" data-name="Path 26451" d="M1.6,0A1.867,1.867,0,0,0,.753.2L0,2.824H2.96L2.422.2A1.866,1.866,0,0,0,1.6,0Z" transform="translate(18.188 11.567)" fill="#db4f5d"/>
        <path id="Path_26452" data-name="Path 26452" d="M0,4.329H0l3.388,3.4H5.632l3.39-3.4h0l0,0-.065-.5L8.437,0h0l.284,2.085A8.994,8.994,0,0,1,4.356,4.329C3.258,4.34.424,2.412.225,2.275L.054,3.832h0Z" transform="translate(15.312 0.378)" fill="#edc0aa"/>
        <path id="Path_26453" data-name="Path 26453" d="M.475.694,0,0,.475.694Z" transform="translate(20.943 8.104)" fill="#edc0aa"/>
        <path id="Path_26454" data-name="Path 26454" d="M.377,0,0,.551H0Z" transform="translate(18.323 8.104)" fill="#edc0aa"/>
        <path id="Path_26455" data-name="Path 26455" d="M2.536,0,.133.2,0,1.416.151.361Z" transform="translate(15.58 0.844)" fill="#edc0aa"/>
        <path id="Path_26456" data-name="Path 26456" d="M8.506,2.463,8.222.378,8.17,0,2.591.844.206,1.205.055,2.261,0,2.644l.012.008c.2.137,3.033,2.065,4.131,2.054A8.994,8.994,0,0,0,8.506,2.463Z" transform="translate(15.525 0)" fill="#e0a489"/>
        <path id="Path_26457" data-name="Path 26457" d="M13.7,6.047l-3.229-1.4L12.019,0,3.982,2.341A28.436,28.436,0,0,0,0,8.17H11.946l-.61-1.439Z" transform="translate(0 6.221)" fill="#282828"/>
        <path id="Path_26458" data-name="Path 26458" d="M3.121,1.583,4.341,0,1.686,1.583l-.143.429L0,6.656l3.229,1.4L.861,8.742l.61,1.439H5.919L4.127,4.675Z" transform="translate(10.475 4.209)" fill="#3b3b3d"/>
        <path id="Path_26459" data-name="Path 26459" d="M1.006,4.675,2.154,8.2,4.569,4.675l.157-.23L5.1,3.895,1.715.5,1.22,0,0,1.583Z" transform="translate(13.596 4.209)" fill="#efeff0"/>
        <path id="Path_26460" data-name="Path 26460" d="M.5.5.55,0H0L.5.5Z" transform="translate(14.816 4.209)" fill="#ced0d1"/>
        <path id="Path_26461" data-name="Path 26461" d="M9.722,2.341,1.685,0,3.229,4.644,0,6.047l2.368.684L1.758,8.17H13.7A28.436,28.436,0,0,0,9.722,2.341Z" transform="translate(25.939 6.221)" fill="#282828"/>
        <path id="Path_26462" data-name="Path 26462" d="M2.691,8.059l3.229-1.4L4.376,2.012l-.143-.429L1.578,0,2.8,1.583,1.792,4.675,0,10.182H4.448l.61-1.439Z" transform="translate(23.248 4.209)" fill="#3b3b3d"/>
        <path id="Path_26463" data-name="Path 26463" d="M0,3.895l.475.694.059.086L2.949,8.2,4.1,4.675,5.1,1.583,3.883,0,3.39.5Z" transform="translate(20.943 4.209)" fill="#efeff0"/>
        <path id="Path_26464" data-name="Path 26464" d="M.067.5.561,0H0L.065.5Z" transform="translate(24.266 4.209)" fill="#ced0d1"/>
        <path id="Path_26465" data-name="Path 26465" d="M3.352,0H1.108L.731.551.574.78,0,1.618,1.35,3.661a1.856,1.856,0,0,1,1.668,0L4.481,1.65l-.6-.87L3.827.694Z" transform="translate(17.592 8.104)" fill="#d1515e"/>
      </g>
      <path id="Path_26466" data-name="Path 26466" d="M17.069,10.038S17.58-.036,9.436,0C1.293-.036,1.8,10.038,1.8,10.038.862,9.984-.187,9.957.028,12.52A2.983,2.983,0,0,0,2.62,15.326a9.912,9.912,0,0,0,3.013,6.188c1.22,1.079,3.8,1.079,3.8,1.079s2.583,0,3.8-1.079a9.913,9.913,0,0,0,3.013-6.188,2.983,2.983,0,0,0,2.592-2.806C19.06,9.957,18.011,9.984,17.069,10.038Z" transform="translate(9.864 1.853)" fill="#f2c4ae"/>
      <path id="Path_26467" data-name="Path 26467" d="M.246,5.253C1.464,1.079,9.019-1.9,13.684,1.438c.145-.659.527-.889,1.387-1.1-.448.5-.682.738-.592,1.142.375-.466.9-.376,1.489-.315a1.456,1.456,0,0,0-1.164.89A4.681,4.681,0,0,1,18.145,7.1c-.833,4.982-.969,4.787-.969,4.787A3.811,3.811,0,0,0,16.1,14.1s-.377-4.587-.538-5.289A16.788,16.788,0,0,0,14,6.009S9.4,9.642,5.69,9.1a1.6,1.6,0,0,0,.547-2.1c-.471.661-1.063,2.006-2.7,1.934a1.267,1.267,0,0,0,.43-1.6A3.755,3.755,0,0,1,2.055,8.815l-.323,4.749S1.343,11.844.246,11.956C.246,11.956-.308,7.152.246,5.253Z" transform="translate(10.434 0)" fill="#864242"/>
      <path id="Path_26468" data-name="Path 26468" d="M8.787.4A4.9,4.9,0,0,1,7.4.748,4.9,4.9,0,0,1,6.005.4,12.624,12.624,0,0,0,.391.246.511.511,0,0,0,0,.77l.013.245A.526.526,0,0,0,.3,1.445a.415.415,0,0,1,.193.261,8.7,8.7,0,0,0,.853,2.538c.595.754,1.875.783,2.741.746A2.287,2.287,0,0,0,6.339,3.54a10.551,10.551,0,0,1,.718-1.872.484.484,0,0,1,.677,0A10.553,10.553,0,0,1,8.453,3.54a2.287,2.287,0,0,0,2.255,1.449c.866.037,2.147.008,2.741-.746A8.709,8.709,0,0,0,14.3,1.706a.415.415,0,0,1,.193-.261.526.526,0,0,0,.282-.429L14.791.77A.511.511,0,0,0,14.4.246,12.624,12.624,0,0,0,8.787.4ZM5.817,3.54a1.939,1.939,0,0,1-1.629.993,3.941,3.941,0,0,1-2.209-.339c-.419-.251-.622-1.043-.723-1.521S.981,1.165,1.47.826A5.137,5.137,0,0,1,4,.512c.614.038,1.942.2,2.193.678A3.884,3.884,0,0,1,5.817,3.54Zm7.718-.867c-.1.478-.3,1.27-.722,1.521a3.942,3.942,0,0,1-2.21.339A1.939,1.939,0,0,1,8.975,3.54,3.884,3.884,0,0,1,8.6,1.19C8.85.713,10.178.55,10.792.512a5.136,5.136,0,0,1,2.531.314C13.811,1.165,13.636,2.2,13.536,2.673Z" transform="translate(11.898 11.46)" fill="#323232"/>
    </g>
  </g>
</svg>
