<svg xmlns="http://www.w3.org/2000/svg" width="347" height="122.001" viewBox="0 0 347 122.001">
  <path id="Subtraction_3" data-name="Subtraction 3" d="M-3703.879,118H-3807a19.87,19.87,0,0,1-14.143-5.858A19.869,19.869,0,0,1-3827,98V16a19.869,19.869,0,0,1,5.858-14.143A19.87,19.87,0,0,1-3807-4h307a19.87,19.87,0,0,1,14.143,5.858A19.869,19.869,0,0,1-3480,16V98a19.869,19.869,0,0,1-5.858,14.143A19.87,19.87,0,0,1-3500,118h-74.121A65.059,65.059,0,0,0-3639,57a65.059,65.059,0,0,0-64.878,61Z" transform="translate(3827 4)" fill="#8e43e7" opacity="0.2"/>
</svg>
