<svg xmlns="http://www.w3.org/2000/svg" width="48" height="48" viewBox="0 0 48 48">
  <g id="Group_47909" data-name="Group 47909" transform="translate(-3534 -2406)">
    <circle id="Ellipse_896" data-name="Ellipse 896" cx="24" cy="24" r="24" transform="translate(3534 2406)" fill="#8e43e7"/>
    <g id="plastic-surgery" transform="translate(3547 2419)">
      <path id="Path_26505" data-name="Path 26505" d="M22.479,10.668,19.7,6.217a14.588,14.588,0,0,0,.653-4.32V1.3a.668.668,0,0,0-.668-.668H14.457L10.324,4.762A7.755,7.755,0,0,1,4.3,6.982,2.967,2.967,0,0,0,1.336,9.946a3,3,0,0,0,3,2.858h.629a.668.668,0,0,1,0,1.337H4.334A4.334,4.334,0,0,1,0,9.946v12.82a.668.668,0,0,0,.668.668H6.753a.685.685,0,0,0,.678-.463l.117-.35a16.571,16.571,0,0,1-3.095-2.248.669.669,0,1,1,.9-.989,15.356,15.356,0,0,0,10.514,4.049c.283,0,.5-.006.655-.006H16.6a3.116,3.116,0,0,0,3.038-3.111v-.262a7.871,7.871,0,0,0,.707-1.48l.681-4.072,1.152-1.152a2.159,2.159,0,0,0,.306-2.684ZM4.247,10.657a.668.668,0,0,1,0,1.337,2.1,2.1,0,0,1,0-4.2.668.668,0,1,1,0,1.337.763.763,0,0,0,0,1.527ZM7.36,12.041V10.609a.668.668,0,0,1,.668-.668H9.46a.668.668,0,0,1,.161,1.316L11.365,13a.668.668,0,1,1-.945.945L8.677,12.2a.668.668,0,0,1-1.316-.161Zm5.6,7.314a.669.669,0,0,1-.913.245L9.917,18.367a.668.668,0,0,1-1.313.185l-.371-1.383a.668.668,0,0,1,.473-.819l1.383-.37a.668.668,0,0,1,.5,1.229l2.135,1.232a.668.668,0,0,1,.245.913ZM14.226,8.414H11.761a.668.668,0,0,1-1.045.817L9.7,8.218a.668.668,0,0,1,0-.945l1.012-1.012a.668.668,0,0,1,1.045.817h2.465a.668.668,0,1,1,0,1.337Zm0,0" transform="translate(0 -0.623)" fill="#fff"/>
      <path id="Path_26506" data-name="Path 26506" d="M4.3,5.517A6.488,6.488,0,0,0,9.379,3.688L12.567.5H.668A.668.668,0,0,0,0,1.169V9.818a4.306,4.306,0,0,1,4.3-4.3Zm0,0" transform="translate(0 -0.5)" fill="#fff"/>
    </g>
  </g>
</svg>
