<svg xmlns="http://www.w3.org/2000/svg" width="48" height="48" viewBox="0 0 48 48">
  <g id="Group_47904" data-name="Group 47904" transform="translate(-3704 -2317)">
    <circle id="Ellipse_894" data-name="Ellipse 894" cx="24" cy="24" r="24" transform="translate(3704 2317)" fill="#ff6c5f"/>
    <g id="heart" transform="translate(3720 2328)">
      <path id="Path_26496" data-name="Path 26496" d="M124.473,1.955V0H120V1.941a6.649,6.649,0,0,1,2.236-.4,6.541,6.541,0,0,1,2.236.415Zm0,0" transform="translate(-114.036)" fill="#fff"/>
      <path id="Path_26497" data-name="Path 26497" d="M74.223,63.642a8.507,8.507,0,0,1,4,1.727A4.2,4.2,0,0,1,82.2,62.491h.148a5.154,5.154,0,0,0-8.126,1.15Zm0,0" transform="translate(-70.534 -57.969)" fill="#fff"/>
      <path id="Path_26498" data-name="Path 26498" d="M8.945,123.769a4.2,4.2,0,0,1-2.879,3.946l-2.1.7L3.491,127l2.1-.7a2.692,2.692,0,0,0,1.791-2.145,6.551,6.551,0,0,0-4.523-2.064,1.648,1.648,0,0,0-1.241.688A9.727,9.727,0,0,0,0,128.454c0,5.63,3.507,11.977,8.2,11.977s8.2-6.347,8.2-11.977a10.411,10.411,0,0,0-.917-4.473H12.673a.757.757,0,0,0-.746.777A9.084,9.084,0,0,1,7.874,132.3l-.751.5-.827-1.24.988-.658a7.645,7.645,0,0,0,3.155-6.264,2.239,2.239,0,0,1,2.235-2.148H16.4V121H11.666a2.748,2.748,0,0,0-2.721,2.769Zm0,0" transform="translate(0 -114.987)" fill="#fff"/>
    </g>
  </g>
</svg>
