<svg xmlns="http://www.w3.org/2000/svg" width="24.06" height="23.558" viewBox="0 0 24.06 23.558">
  <g id="certificate" transform="translate(0 -5.345)">
    <path id="Path_26717" data-name="Path 26717" d="M119.849,358.956q-.22.022-.445.022a4.428,4.428,0,0,1-3.835-2.219L112.678,361a.246.246,0,0,0,.25.379l2.5-.489a.246.246,0,0,1,.288.195l.484,2.517a.246.246,0,0,0,.444.092l1.486-2.187h0Z" transform="translate(-107.342 -334.9)" fill="#8e43e7"/>
    <path id="Path_26718" data-name="Path 26718" d="M197.225,247.4a2.932,2.932,0,1,0,2.932,2.932A2.936,2.936,0,0,0,197.225,247.4Zm1.147,3.679h-.4v.4a.747.747,0,1,1-1.493,0v-.4h-.4a.747.747,0,0,1,0-1.493h.4v-.4a.747.747,0,1,1,1.493,0v.4h.4a.747.747,0,0,1,0,1.493Z" transform="translate(-185.163 -230.683)" fill="#8e43e7"/>
    <path id="Path_26719" data-name="Path 26719" d="M23.215,5.345H.845A.845.845,0,0,0,0,6.19V20.975a.845.845,0,0,0,.845.845H8.206a4.4,4.4,0,0,1-.569-2.168c0-.09,0-.179.008-.268H3.119a.747.747,0,0,1-.747-.747V8.527a.747.747,0,0,1,.747-.747H20.941a.747.747,0,0,1,.747.747v10.11a.747.747,0,0,1-.747.747H16.48c.005.089.008.178.008.268a4.4,4.4,0,0,1-.569,2.168h7.3a.845.845,0,0,0,.845-.845V6.19a.845.845,0,0,0-.845-.845Z" transform="translate(0 0)" fill="#8e43e7"/>
    <path id="Path_26720" data-name="Path 26720" d="M279.271,356.206a4.453,4.453,0,0,1-.659.883l-2.267,3.36,1.84,2.718a.246.246,0,0,0,.445-.091l.483-2.516a.246.246,0,0,1,.288-.195l2.5.49a.246.246,0,0,0,.251-.378Z" transform="translate(-263.358 -334.373)" fill="#8e43e7"/>
    <path id="Path_26721" data-name="Path 26721" d="M98.6,97.572V88.955H82.268v8.617h4.137a4.425,4.425,0,0,1,8.119,0Zm-13.02-5.116a.747.747,0,0,1,0-1.493h9.776a.747.747,0,0,1,0,1.493Z" transform="translate(-78.402 -79.681)" fill="#8e43e7"/>
  </g>
</svg>
