<svg xmlns="http://www.w3.org/2000/svg" width="48" height="48" viewBox="0 0 48 48">
  <g id="Group_47903" data-name="Group 47903" transform="translate(-3623 -2317)">
    <circle id="Ellipse_893" data-name="Ellipse 893" cx="24" cy="24" r="24" transform="translate(3623 2317)" fill="#3369e7"/>
    <path id="molar-tooth" d="M28.046,1.642A6.29,6.29,0,0,0,22.074.223a10.962,10.962,0,0,1-5.154,0,6.291,6.291,0,0,0-5.972,1.419c-3.8,3.473-.742,9.678.178,10.746s.95,2.494,1.6,5.4,1.484,5.67,3.147,5.254,2.108-2.434,2.523-5.136q.043-.279.089-.524a1.026,1.026,0,0,1,2.018,0q.046.245.089.524c.416,2.7.861,4.72,2.523,5.136s2.494-2.345,3.147-5.254.683-4.334,1.6-5.4S31.846,5.115,28.046,1.642ZM16.441,2.991a.625.625,0,0,1-.7.537,3.3,3.3,0,0,0-3.593,2.644.625.625,0,0,1-1.211-.312A4.515,4.515,0,0,1,15.9,2.288.625.625,0,0,1,16.441,2.991Z" transform="translate(3627.91 2329)" fill="#fff"/>
  </g>
</svg>
