<svg xmlns="http://www.w3.org/2000/svg" width="26.179" height="31.323" viewBox="0 0 26.179 31.323">
  <g id="Group_48152" data-name="Group 48152" transform="translate(-42.104 -860.434)">
    <g id="user_3_" data-name="user (3)" transform="translate(48.13 873.292)">
      <g id="Group_47925" data-name="Group 47925" transform="translate(3.352 0)">
        <g id="Group_47924" data-name="Group 47924" transform="translate(0)">
          <path id="Path_26508" data-name="Path 26508" d="M114.728,0a4.136,4.136,0,1,0,4.136,4.136A4.134,4.134,0,0,0,114.728,0Z" transform="translate(-110.592)" fill="#8e43e7"/>
        </g>
      </g>
      <g id="Group_47927" data-name="Group 47927" transform="translate(0 9.541)">
        <g id="Group_47926" data-name="Group 47926" transform="translate(0)">
          <path id="Path_26509" data-name="Path 26509" d="M40.843,205.824H37.621a5.88,5.88,0,0,0-5.877,5.877V214.1a.641.641,0,0,0,.653.653h13.67a.641.641,0,0,0,.653-.653V211.7A5.88,5.88,0,0,0,40.843,205.824Z" transform="translate(-31.744 -205.824)" fill="#8e43e7"/>
        </g>
      </g>
    </g>
    <g id="Group_48151" data-name="Group 48151" transform="translate(42.104 860.434)">
      <path id="Path_26733" data-name="Path 26733" d="M184.664.174,186.141,2.6a.362.362,0,0,0,.226.164l2.761.657a.363.363,0,0,1,.191.589L187.471,6.16a.363.363,0,0,0-.086.265l.228,2.828a.363.363,0,0,1-.5.364l-2.619-1.091a.363.363,0,0,0-.279,0L181.6,9.617a.363.363,0,0,1-.5-.364l.228-2.828a.363.363,0,0,0-.086-.265l-1.847-2.154a.363.363,0,0,1,.191-.589l2.761-.657a.362.362,0,0,0,.226-.164L184.045.174a.363.363,0,0,1,.619,0Z" transform="translate(-171.264 0)" fill="#8e43e7"/>
      <path id="Path_26734" data-name="Path 26734" d="M256.139,8.526l2.619,1.091a.363.363,0,0,0,.5-.364l-.228-2.828a.362.362,0,0,1,.086-.265l1.847-2.154a.363.363,0,0,0-.191-.589l-2.761-.657a.363.363,0,0,1-.226-.164L256.31.174A.359.359,0,0,0,256,0c.91,3.438,1.091,6.391,0,8.5A.362.362,0,0,1,256.139,8.526Z" transform="translate(-242.91 0)" fill="#8e43e7"/>
      <path id="Path_26735" data-name="Path 26735" d="M60.414,61.19l.861,1.412a.211.211,0,0,0,.131.1l1.609.383a.211.211,0,0,1,.111.343L62.05,64.678a.211.211,0,0,0-.05.155l.133,1.648a.211.211,0,0,1-.292.212l-1.527-.636a.211.211,0,0,0-.162,0l-1.527.636a.211.211,0,0,1-.292-.212l.133-1.648a.211.211,0,0,0-.05-.155L57.34,63.423a.211.211,0,0,1,.111-.343L59.06,62.7a.211.211,0,0,0,.131-.1l.861-1.412A.211.211,0,0,1,60.414,61.19Z" transform="translate(-57.289 -57.064)" fill="#8e43e7"/>
      <path id="Path_26736" data-name="Path 26736" d="M102.071,66.058l1.527.636a.211.211,0,0,0,.292-.212l-.133-1.648a.212.212,0,0,1,.05-.155l1.077-1.255a.211.211,0,0,0-.111-.343l-1.609-.383a.211.211,0,0,1-.131-.1l-.861-1.412a.209.209,0,0,0-.18-.1c.53,2,.636,3.725,0,4.953A.211.211,0,0,1,102.071,66.058Z" transform="translate(-99.045 -57.065)" fill="#8e43e7"/>
      <path id="Path_26737" data-name="Path 26737" d="M368.436,61.19,369.3,62.6a.211.211,0,0,0,.131.1l1.609.383a.211.211,0,0,1,.111.343l-1.077,1.255a.211.211,0,0,0-.05.155l.133,1.648a.211.211,0,0,1-.292.212l-1.527-.636a.211.211,0,0,0-.162,0l-1.527.636a.211.211,0,0,1-.292-.212l.133-1.648a.211.211,0,0,0-.05-.155l-1.077-1.255a.211.211,0,0,1,.111-.343l1.609-.383a.211.211,0,0,0,.131-.1l.861-1.412A.211.211,0,0,1,368.436,61.19Z" transform="translate(-345.021 -57.064)" fill="#8e43e7"/>
      <path id="Path_26738" data-name="Path 26738" d="M410.093,66.058l1.527.636a.211.211,0,0,0,.292-.212l-.133-1.648a.212.212,0,0,1,.05-.155l1.077-1.255a.211.211,0,0,0-.111-.343l-1.609-.383a.211.211,0,0,1-.131-.1l-.861-1.412a.209.209,0,0,0-.18-.1c.53,2,.636,3.725,0,4.953A.21.21,0,0,1,410.093,66.058Z" transform="translate(-386.777 -57.065)" fill="#8e43e7"/>
    </g>
  </g>
</svg>
