<svg xmlns="http://www.w3.org/2000/svg" width="48" height="48" viewBox="0 0 48 48">
  <g id="Group_47910" data-name="Group 47910" transform="translate(-3615 -2421)">
    <circle id="Ellipse_893" data-name="Ellipse 893" cx="24" cy="24" r="24" transform="translate(3615 2421)" fill="#ff4f81"/>
    <g id="eye-close-up" transform="translate(3626 2437)">
      <path id="Path_26499" data-name="Path 26499" d="M12.879,161.525A14.141,14.141,0,0,0,.052,169.707a.552.552,0,0,0,0,.467,14.145,14.145,0,0,0,25.654,0,.552.552,0,0,0,0-.467A14.141,14.141,0,0,0,12.879,161.525Zm0,14.222a5.806,5.806,0,1,1,5.806-5.806A5.805,5.805,0,0,1,12.879,175.747Z" transform="translate(0 -161.525)" fill="#fff"/>
      <ellipse id="Ellipse_895" data-name="Ellipse 895" cx="3.717" cy="3.717" rx="3.717" ry="3.717" transform="translate(9.162 4.697)" fill="#fff"/>
    </g>
  </g>
</svg>
