<svg xmlns="http://www.w3.org/2000/svg" width="24.883" height="23.44" viewBox="0 0 24.883 23.44">
  <g id="hospital_1_" data-name="hospital (1)" transform="translate(0 -0.406)">
    <g id="Group_48150" data-name="Group 48150" transform="translate(0 0.406)">
      <path id="Path_26747" data-name="Path 26747" d="M11.206,2.923c-.839,0-1.629.819-2.225,1.414l-7.392,7.4V20.21a1.682,1.682,0,0,0,1.683,1.681H19.144a1.682,1.682,0,0,0,1.681-1.681V11.733l-7.393-7.4C12.837,3.742,12.045,2.923,11.206,2.923Zm5.13,12.509h-3.4v3.4H9.479v-3.4h-3.4V11.98h3.4v-3.4h3.454v3.4h3.4Z" transform="translate(1.235 1.549)" fill="#8e43e7"/>
      <path id="Path_26748" data-name="Path 26748" d="M24.483,10.251,16.1,1.873a5.3,5.3,0,0,0-7.321,0L.4,10.251a1.367,1.367,0,0,0,0,1.935,1.4,1.4,0,0,0,1.931,0L10.712,3.8a2.5,2.5,0,0,1,3.456,0l8.38,8.381a1.358,1.358,0,0,0,.965.4,1.366,1.366,0,0,0,.97-2.333Z" transform="translate(0 -0.406)" fill="#8e43e7"/>
    </g>
  </g>
</svg>
