<svg xmlns="http://www.w3.org/2000/svg" width="24.4" height="13.943" viewBox="0 0 24.4 13.943">
  <g id="Icon_ionic-ios-videocam" data-name="Icon ionic-ios-videocam" transform="translate(-2.25 -9)">
    <path id="Path_26636" data-name="Path 26636" d="M30.1,10.8a.93.93,0,0,0-.507.147l-4.711,2.974a.466.466,0,0,0-.218.392v4.139a.466.466,0,0,0,.218.392l4.711,2.974a.979.979,0,0,0,.507.147h1.133A.464.464,0,0,0,31.7,21.5V11.263a.467.467,0,0,0-.468-.463Z" transform="translate(-5.052 -0.406)" fill="#fff"/>
    <path id="Path_26637" data-name="Path 26637" d="M15.4,22.943H5.055a2.814,2.814,0,0,1-2.8-2.8V11.8A2.809,2.809,0,0,1,5.049,9H15.4a2.809,2.809,0,0,1,2.8,2.8v8.338A2.8,2.8,0,0,1,15.4,22.943Z" fill="#fff"/>
  </g>
</svg>
