<svg xmlns="http://www.w3.org/2000/svg" width="48" height="48" viewBox="0 0 48 48">
  <g id="Group_47902" data-name="Group 47902" transform="translate(-3553 -2317)">
    <circle id="Ellipse_892" data-name="Ellipse 892" cx="24" cy="24" r="24" transform="translate(3553 2317)" fill="#00aeff"/>
    <g id="newborn" transform="translate(3564 2327.993)">
      <g id="Group_47896" data-name="Group 47896" transform="translate(12.564 4.489)">
        <path id="Path_26490" data-name="Path 26490" d="M273.868,210.7a.747.747,0,1,0-1.057,0A.748.748,0,0,0,273.868,210.7Z" transform="translate(-271.573 -203.475)" fill="#fff"/>
        <path id="Path_26491" data-name="Path 26491" d="M253.376,91.2a4.236,4.236,0,0,0-1.129,3.952c.023-.026.047-.051.072-.076a2.242,2.242,0,0,1,3.171,3.171c-.025.025-.05.049-.076.072a4.235,4.235,0,1,0-2.038-7.119Zm2.643,1.938a.747.747,0,1,1,0-1.057A.747.747,0,0,1,256.018,93.14Zm2.466,2.466a.747.747,0,1,1,0-1.057A.747.747,0,0,1,258.485,95.606Z" transform="translate(-252.138 -89.964)" fill="#fff"/>
      </g>
      <g id="Group_47898" data-name="Group 47898" transform="translate(0 0.007)">
        <path id="Path_26492" data-name="Path 26492" d="M86.119,129.568l-2.561,2.561,4.42,16.494a8.761,8.761,0,0,0,3.108-.519Z" transform="translate(-79.394 -123.112)" fill="#fff"/>
        <g id="Group_47897" data-name="Group 47897" transform="translate(7.945 0)">
          <path id="Path_26493" data-name="Path 26493" d="M226.307,354.6a8.7,8.7,0,0,0,1.814-1.391l3.67-3.67-7.369-1.975Z" transform="translate(-221.184 -330.245)" fill="#fff"/>
          <path id="Path_26494" data-name="Path 26494" d="M174.464,14.889A8.72,8.72,0,0,0,162.131,2.557l-2.685,2.685,2.791,10.416,9.036,2.421ZM164.246,4.671a5.73,5.73,0,1,1,0,8.1A5.737,5.737,0,0,1,164.246,4.671Z" transform="translate(-159.446 -0.007)" fill="#fff"/>
        </g>
        <path id="Path_26495" data-name="Path 26495" d="M2.943,205.455l-.393.393a8.716,8.716,0,0,0,4.44,14.711Z" transform="translate(0 -195.218)" fill="#fff"/>
      </g>
    </g>
  </g>
</svg>
